<svg xmlns="http://www.w3.org/2000/svg" viewBox="0 0 24 24">
  <path d="M11 3C7.425781 3 4.457031 5.410156 3.4375 8.65625C1.429688 9.625 0 11.628906 0 14C0 17.300781 2.699219 20 6 20L18 20C21.300781 20 24 17.300781 24 14C24 10.820313 21.480469 8.25 18.34375 8.0625C17.160156 5.121094 14.355469 3 11 3 Z M 11 5C13.734375 5 16.019531 6.824219 16.75 9.3125L16.96875 10.0625L17.78125 10.03125C17.996094 10.019531 18.058594 10 18 10C20.222656 10 22 11.777344 22 14C22 16.21875 20.222656 18 18 18L6 18C3.777344 18 2 16.21875 2 14C2 12.289063 3.0625 10.859375 4.5625 10.28125L5.0625 10.09375L5.1875 9.59375C5.824219 6.96875 8.167969 5 11 5 Z M 10 9L10 13L8.25 13L11 16.75L13.75 13L12 13L12 9Z" fill="#212121" />
</svg>